<?xml version="1.0" encoding="UTF-8"?>
<svg id="Capa_1" xmlns="http://www.w3.org/2000/svg" version="1.1" viewBox="0 0 324.72 245.89">
  <!-- Generator: Adobe Illustrator 30.4.0, SVG Export Plug-In . SVG Version: 2.1.4 Build 226)  -->
  <g>
    <path d="M129.67,174.59c0,.84-.11,1.77-.34,2.78-.22,1.01-.44,1.51-.65,1.51-.16,0-.24-.08-.24-.24,0-.05.02-.12.05-.22.43-1.14.65-2.36.65-3.68,0-2.05-.61-3.69-1.83-4.94-1.22-1.24-2.83-1.86-4.83-1.86-2.75,0-5.53.89-8.34,2.66,2.41,1.92,3.61,4,3.61,6.24,0,1.9-.76,3.52-2.28,4.86-1.52,1.34-3.53,2.17-6.01,2.48,1.69.98,2.54,2.39,2.54,4.25,0,1.24-.43,3.12-1.29,5.64-.57,1.66-.85,2.96-.85,3.91s.35,1.8,1.05,2.48,1.56,1.01,2.57,1.01,2.03-.35,2.96-1.04c.21-.13.36-.19.44-.19.13,0,.19.06.19.19,0,.27-.46.59-1.37.96-.91.36-1.7.54-2.37.54-1.56,0-2.87-.62-3.93-1.87-1.06-1.24-1.59-2.79-1.59-4.63,0-1.34.59-3.69,1.76-7.06.29-.86.44-1.6.44-2.2,0-.77-.32-1.42-.95-1.95-1.04.1-1.64.15-1.78.15-1.61,0-2.42-.2-2.42-.61,0-.26.41-.39,1.22-.39.96,0,1.92.19,2.88.56,1.94-.31,3.52-1.21,4.76-2.69,1.24-1.49,1.85-3.24,1.85-5.25,0-1.59-.62-3.12-1.85-4.58l-.24-.32c-3.56,2.67-6.93,7.32-10.1,13.96-1.92,4.02-3.68,6.91-5.27,8.69-1.59,1.77-3.83,3.38-6.71,4.81-3.4,1.66-6.43,2.49-9.1,2.49-2.18,0-3.99-.5-5.44-1.5-1.45-1-2.17-2.25-2.17-3.75,0-.83.25-1.54.76-2.15.5-.6,1.1-.9,1.78-.9.99,0,1.49.55,1.49,1.66,0,.55-.17,1.02-.5,1.42-.33.39-.74.59-1.23.59-.85,0-1.25-.44-1.22-1.32.02-.36-.02-.54-.1-.54-.26,0-.39.43-.39,1.29,0,1.35.66,2.47,1.99,3.37s3,1.34,5.01,1.34c3.56,0,6.79-1.32,9.68-3.95,1.27-1.15,2.35-2.34,3.24-3.54.98-1.3,3.11-4.46,6.39-9.47,1.64-2.47,3.58-4.95,5.8-7.44,2.23-2.49,4.12-4.27,5.68-5.34-2.54-2.16-6.26-3.24-11.18-3.24-6.86,0-12.83,2.48-17.91,7.44-4.16,4.07-6.25,7.9-6.25,11.49,0,1.82.59,3.27,1.76,4.34s2.76,1.61,4.76,1.61c3.27,0,6.65-1.57,10.14-4.71,3.49-3.14,5.23-6.19,5.23-9.15,0-2.36-1.21-3.54-3.64-3.54s-5.02,1.35-7.8,4.06c-2.77,2.71-4.16,5.24-4.16,7.62,0,.59.2,1.09.59,1.51.39.42.85.63,1.37.63.28,0,.42.07.42.22,0,.13-.15.2-.47.2-.78,0-1.45-.35-1.98-1.06s-.81-1.57-.81-2.6c0-2.54,1.39-5.01,4.17-7.41,2.78-2.41,5.64-3.61,8.56-3.61s4.2,1.29,4.2,3.88c0,3.16-1.78,6.34-5.34,9.56s-7.08,4.83-10.54,4.83c-2.26,0-4.07-.68-5.43-2.04-1.36-1.36-2.04-3.18-2.04-5.45,0-4.6,2.6-8.8,7.8-12.6,5.2-3.8,10.94-5.7,17.24-5.7,4.78,0,8.8,1.07,12.05,3.19,2.98-1.85,5.86-2.78,8.64-2.78,2.18,0,3.93.65,5.26,1.95,1.33,1.3,1.99,3.01,1.99,5.14Z"/>
    <path d="M132.02,192.34s-.15.26-.44.63l-1.05,1.31c-3.37,4.16-6.26,6.24-8.67,6.24-1.14,0-2.1-.41-2.87-1.23s-1.16-1.85-1.16-3.09c0-2.93,2.04-5.51,6.13-7.74,2.15-1.17,3.9-1.76,5.25-1.76.58,0,1.08.18,1.5.52.41.35.62.78.62,1.28,0,1.17-.77,2.17-2.29,2.99-1.53.82-4.08,1.59-7.66,2.31-1.11,1.68-1.66,3.08-1.66,4.2,0,1.4.76,2.1,2.27,2.1,2.57,0,5.72-2.51,9.45-7.53.19-.26.36-.39.49-.39.06.02.1.07.1.15ZM129.96,187.82c0-.52-.28-.78-.85-.78-.86,0-2,.6-3.4,1.79-1.41,1.2-2.79,2.74-4.14,4.65,2.34-.6,4.33-1.45,5.95-2.55,1.63-1.1,2.44-2.13,2.44-3.11Z"/>
    <path d="M140.26,182.85c0,.65-1.02,1.94-3.05,3.87-.1.5-.15.94-.15,1.32,0,.94.43,2.44,1.29,4.49.44,1.02.66,1.89.66,2.59,0,1.46-.71,2.73-2.13,3.81-1.42,1.07-3.11,1.61-5.06,1.61-1.11,0-1.99-.31-2.65-.94-.66-.63-.99-1.47-.99-2.53,0-1.22.44-2.41,1.31-3.56.87-1.15,1.77-1.73,2.7-1.73.16,0,.31.03.44.1l1.95-2.39c.59-.7,1.37-1.67,2.34-2.9.28-1.14.7-2.11,1.27-2.93.57-.81,1.13-1.22,1.68-1.22.26,0,.39.14.39.43ZM136.87,192.48c0-.49-.02-.97-.05-1.45-.03-.48-.05-1.17-.05-2.06,0-.73.03-1.34.1-1.83-.91,1.15-2.23,2.78-3.95,4.88.31.26.46.58.46.95,0,.96-.79,1.61-2.37,1.95-.63.15-1.18.49-1.65,1.04-.46.55-.7,1.12-.7,1.72,0,.65.24,1.2.71,1.63s1.06.66,1.76.66c1.37,0,2.66-.79,3.89-2.38,1.23-1.59,1.84-3.29,1.84-5.11Z"/>
    <path d="M150.1,192.32s-.1.18-.24.39l-1.05,1.44c-3.06,4.25-5.4,6.38-7.01,6.38-.77,0-1.4-.27-1.92-.82s-.77-1.22-.77-2.04c0-.94.56-2.37,1.68-4.29l3.81-6.47c.5.11.9.17,1.2.17.44,0,1.06-.06,1.85-.17l-5.54,9.1c-.8,1.32-1.2,2.34-1.2,3.05s.38,1.1,1.15,1.1c1.45,0,4-2.58,7.65-7.75.08-.16.16-.24.24-.24.1,0,.15.05.15.15ZM149.75,182.23c0,.57-.24,1.1-.72,1.6-.48.5-1,.74-1.57.74-.73,0-1.1-.37-1.1-1.1,0-.54.25-1.05.76-1.55.5-.5,1.03-.74,1.59-.74.7,0,1.05.35,1.05,1.05Z"/>
    <path d="M172.3,175.28c-6.1,9.7-9.95,15.89-11.54,18.59-1.61,2.75-2.42,4.48-2.42,5.2s.33,1.1,1,1.1c1.48,0,4-2.58,7.55-7.75.1-.16.19-.24.27-.24.1,0,.15.05.15.15-.02.05-.1.18-.24.39l-1.05,1.44c-3.08,4.25-5.35,6.38-6.82,6.38-.75,0-1.36-.28-1.83-.84-.47-.56-.71-1.28-.71-2.16s.29-1.89.88-3.05c-2.85,4.03-4.96,6.05-6.34,6.05-.86,0-1.59-.37-2.17-1.11-.59-.74-.88-1.67-.88-2.79,0-2.68,1.67-5.12,5-7.3,2.65-1.74,4.73-2.61,6.25-2.61,1.01,0,1.51.49,1.51,1.46,0,.46-.14.97-.41,1.54l8.71-14.59c.54.16,1.07.24,1.59.24.13,0,.63-.03,1.51-.1ZM160.53,188.38c0-.86-.4-1.29-1.2-1.29-1.46,0-3.4,1.46-5.79,4.38-2.4,2.92-3.6,5.27-3.6,7.06,0,1.09.45,1.63,1.34,1.63,1.3,0,3.54-2.26,6.71-6.78,1.69-2.44,2.54-4.11,2.54-5Z"/>
    <path d="M179.65,192.34s-.15.26-.44.63l-1.05,1.31c-3.37,4.16-6.26,6.24-8.67,6.24-1.14,0-2.1-.41-2.87-1.23-.77-.82-1.16-1.85-1.16-3.09,0-2.93,2.04-5.51,6.13-7.74,2.15-1.17,3.9-1.76,5.25-1.76.58,0,1.08.18,1.5.52.41.35.62.78.62,1.28,0,1.17-.77,2.17-2.29,2.99-1.53.82-4.08,1.59-7.66,2.31-1.11,1.68-1.66,3.08-1.66,4.2,0,1.4.76,2.1,2.27,2.1,2.57,0,5.72-2.51,9.45-7.53.19-.26.36-.39.49-.39.06.02.1.07.1.15ZM177.59,187.82c0-.52-.28-.78-.85-.78-.86,0-2,.6-3.4,1.79-1.41,1.2-2.79,2.74-4.14,4.65,2.34-.6,4.33-1.45,5.95-2.55,1.63-1.1,2.44-2.13,2.44-3.11Z"/>
    <path d="M199.2,192.32c0,.34-1.18,1.92-3.54,4.74-1.94,2.31-3.46,3.47-4.57,3.47-.73,0-1.35-.29-1.84-.85-.5-.57-.75-1.27-.75-2.1,0-.73.15-1.41.45-2.04s1.09-1.87,2.35-3.72c1.32-1.95,1.98-3.2,1.98-3.73,0-.67-.35-1-1.05-1-2.37,0-6.04,4.41-10.98,13.22-.8-.07-1.28-.1-1.44-.1-.57,0-1.11.03-1.61.1l3.81-6.03c2.16-3.45,3.25-5.6,3.25-6.47,0-.49-.2-.73-.61-.73-.83,0-2.47,1.75-4.92,5.26-.15.21-.26.33-.34.34-.08,0-.13-.05-.15-.15.02-.08.05-.15.1-.19l.46-.61c2.49-3.34,4.17-5.01,5.03-5.01.55,0,1.03.25,1.42.76.39.5.59,1.11.59,1.81,0,1.04-.61,2.49-1.83,4.34,1.92-2.65,3.39-4.47,4.43-5.44,1.03-.98,1.99-1.46,2.87-1.46.72,0,1.32.29,1.81.88.49.59.73,1.31.73,2.17,0,1.09-.75,2.76-2.25,5-1.53,2.29-2.29,3.76-2.29,4.39,0,.67.33,1,1,1,1.45,0,3.95-2.58,7.5-7.75.08-.16.16-.24.25-.24.1,0,.15.05.15.15Z"/>
    <path d="M211.3,192.32c0,.21-1.15,1.58-3.44,4.11-2.51,2.74-4.64,4.11-6.4,4.11-1.14,0-2.12-.44-2.93-1.31-.81-.87-1.22-1.91-1.22-3.11,0-1.37.55-2.78,1.66-4.25,1.11-1.46,2.59-2.72,4.47-3.78,1.58-.91,2.86-1.37,3.85-1.37,1.2,0,1.81.72,1.81,2.15,0,1.12-.38,2.24-1.13,3.37-.76,1.12-1.51,1.68-2.26,1.68s-1.1-.37-1.1-1.1c0-.86.75-1.66,2.25-2.39,1.15-.57,1.73-1.32,1.73-2.24,0-.73-.4-1.1-1.2-1.1-1.35,0-3.01,1.34-4.98,4.03-1.97,2.68-2.95,4.94-2.95,6.76,0,1.53.72,2.29,2.15,2.29,2.25,0,5.29-2.53,9.14-7.6.21-.26.37-.39.46-.39.07.02.1.07.1.15Z"/>
    <path d="M219.64,192.32s-.1.18-.24.39l-1.05,1.44c-3.06,4.25-5.4,6.38-7.01,6.38-.77,0-1.4-.27-1.92-.82s-.77-1.22-.77-2.04c0-.94.56-2.37,1.68-4.29l3.81-6.47c.5.11.9.17,1.2.17.44,0,1.06-.06,1.85-.17l-5.54,9.1c-.8,1.32-1.2,2.34-1.2,3.05s.38,1.1,1.15,1.1c1.45,0,4-2.58,7.65-7.75.08-.16.16-.24.24-.24.1,0,.15.05.15.15ZM219.29,182.23c0,.57-.24,1.1-.72,1.6-.48.5-1,.74-1.57.74-.73,0-1.1-.37-1.1-1.1,0-.54.25-1.05.76-1.55.5-.5,1.03-.74,1.59-.74.7,0,1.05.35,1.05,1.05Z"/>
    <path d="M236.84,192.32c0,.34-1.19,1.92-3.57,4.74-1.92,2.31-3.44,3.47-4.54,3.47-.75,0-1.36-.28-1.83-.84-.47-.56-.71-1.26-.71-2.11s.26-1.83.78-2.86c-1.63,2.28-2.87,3.82-3.73,4.61-.86.8-1.7,1.2-2.51,1.2-.86,0-1.59-.37-2.17-1.11-.59-.74-.88-1.67-.88-2.79,0-3.12,2.2-5.89,6.61-8.3,1.94-1.07,3.5-1.61,4.68-1.61,1.01,0,1.51.49,1.51,1.46,0,.28-.06.64-.19,1.1l1.24-2.37c.49.11.92.17,1.29.17.44,0,1.01-.06,1.71-.17l-4.32,7.15c-1.5,2.51-2.25,4.16-2.25,4.95s.32,1.15.95,1.15,1.69-.75,3.13-2.24c1.43-1.49,2.89-3.33,4.37-5.51.1-.16.19-.24.27-.24.1,0,.15.05.15.15ZM230.12,188.28c0-.8-.37-1.2-1.1-1.2-1.5,0-3.46,1.46-5.89,4.39-2.43,2.93-3.65,5.29-3.65,7.1,0,1.06.47,1.59,1.42,1.59,1.12,0,3.07-1.86,5.83-5.59,2.26-3.06,3.39-5.16,3.39-6.29Z"/>
    <path d="M249.69,175.03c-6.83,11.37-10.81,18.06-11.94,20.06-1.13,2-1.7,3.33-1.7,3.98,0,.73.31,1.1.93,1.1,1.37,0,3.88-2.58,7.53-7.75.08-.16.18-.24.29-.24.06.02.1.07.1.15,0,.1-.08.23-.24.39l-1.05,1.44c-3.08,4.25-5.35,6.38-6.81,6.38-.7,0-1.27-.26-1.72-.79-.45-.53-.67-1.2-.67-2.01,0-.89.21-1.76.62-2.6.41-.84,1.82-3.26,4.23-7.26,2.94-4.9,5.43-9.14,7.44-12.74.49.13.92.19,1.29.19.62,0,1.19-.1,1.71-.29Z"/>
  </g>
  <g>
    <path d="M161.31,65.77l-.59,9.06h-25.52v-1.54c.43-.03,1.01-.09,1.73-.18.72-.09,1.19-.19,1.41-.29.46-.22.78-.5.96-.84.18-.35.27-.79.27-1.32v-22.1c0-.48-.08-.9-.24-1.27-.16-.37-.49-.67-1-.9-.39-.19-.91-.35-1.57-.5-.66-.14-1.18-.23-1.57-.26v-1.54h23.79v7.41h-1.62c-.29-1.1-.91-2.26-1.87-3.5-.96-1.24-1.87-1.91-2.74-2.03-.45-.06-.98-.1-1.6-.13-.62-.03-1.33-.04-2.12-.04h-4.83v12.22h3.47c1.11,0,1.92-.1,2.44-.31.51-.21.96-.56,1.35-1.05.32-.42.59-.98.81-1.68.22-.7.37-1.36.44-1.98h1.62v12.05h-1.62c-.06-.69-.21-1.43-.47-2.2-.25-.77-.52-1.33-.79-1.68-.45-.56-.96-.93-1.53-1.1s-1.33-.26-2.26-.26h-3.47v9.21c0,.92.06,1.65.2,2.18.13.53.38.94.76,1.21.38.27.89.45,1.54.53s1.57.12,2.77.12h1.88c.78,0,1.44-.03,1.97-.09.55-.06,1.12-.16,1.7-.31.59-.15,1-.36,1.25-.62.66-.69,1.36-1.74,2.09-3.15.73-1.41,1.19-2.44,1.4-3.11h1.56Z"/>
    <path d="M189.13,65.68l-.65,9.14h-24.03v-1.54c.35-.03.85-.08,1.51-.15.66-.07,1.12-.17,1.38-.28.43-.19.75-.46.94-.82s.29-.82.29-1.39v-22.01c0-.49-.08-.92-.25-1.3-.17-.38-.5-.68-.99-.91-.33-.17-.8-.34-1.4-.51s-1.09-.26-1.48-.29v-1.54h12.98v1.54c-.4.01-.93.09-1.57.22-.64.13-1.11.25-1.4.35-.49.17-.83.47-1.01.89-.18.42-.27.87-.27,1.34v20.65c0,.95.05,1.69.14,2.22s.31.94.66,1.22c.33.26.83.43,1.48.51.66.08,1.58.12,2.76.12.53,0,1.09-.01,1.67-.04s1.13-.09,1.65-.17c.51-.09.97-.21,1.4-.36s.74-.34.94-.57c.59-.66,1.28-1.67,2.07-3.02s1.33-2.44,1.64-3.28h1.54Z"/>
  </g>
  <g>
    <path d="M73.91,130.77l-.86,13.32h-37.53v-2.26c.64-.04,1.49-.13,2.55-.27,1.06-.14,1.75-.28,2.07-.43.68-.32,1.15-.73,1.42-1.24.27-.51.4-1.16.4-1.94v-32.5c0-.7-.12-1.32-.35-1.86-.23-.54-.72-.98-1.47-1.32-.57-.28-1.34-.52-2.31-.73-.97-.21-1.74-.34-2.31-.38v-2.26h34.98v10.9h-2.39c-.43-1.61-1.34-3.33-2.76-5.15-1.41-1.82-2.76-2.81-4.03-2.98-.66-.09-1.45-.15-2.36-.19-.91-.04-1.96-.06-3.12-.06h-7.1v17.97h5.1c1.64,0,2.83-.15,3.58-.46.75-.31,1.42-.82,1.99-1.54.47-.62.86-1.44,1.19-2.47.33-1.03.55-2,.65-2.91h2.39v17.71h-2.39c-.09-1.02-.31-2.1-.69-3.23-.37-1.14-.76-1.96-1.16-2.47-.66-.83-1.41-1.37-2.25-1.62s-1.95-.38-3.33-.38h-5.1v13.55c0,1.36.1,2.43.29,3.21.19.78.56,1.38,1.11,1.78.55.4,1.31.66,2.26.78s2.31.18,4.08.18h2.77c1.15,0,2.11-.04,2.9-.13.81-.08,1.64-.24,2.5-.46.86-.22,1.47-.53,1.83-.91.98-1.02,2-2.56,3.08-4.64,1.07-2.07,1.76-3.6,2.05-4.57h2.29Z"/>
    <path d="M124.91,101.14c-.6.02-1.51.19-2.74.51s-2.11.65-2.64.99c-.77.53-1.28,1.55-1.55,3.06-.27,1.51-.4,3.42-.4,5.73v33.1h-2.77l-27.4-36.99v23.32c0,2.61.16,4.62.49,6.02.33,1.4.83,2.4,1.51,3,.49.47,1.5.9,3.03,1.31s2.54.62,3.03.64v2.26h-18.54v-2.26c.57-.04,1.54-.25,2.9-.62,1.36-.37,2.21-.71,2.55-1,.74-.59,1.25-1.5,1.53-2.72.28-1.22.41-3.31.41-6.26v-22.27c0-.98-.17-1.95-.51-2.93-.34-.98-.8-1.73-1.37-2.26-.76-.7-1.8-1.3-3.11-1.8-1.31-.5-2.36-.77-3.17-.81v-2.26h12.92l25.41,34.46v-21.5c0-2.63-.17-4.66-.51-6.07-.34-1.41-.83-2.35-1.47-2.82-.59-.4-1.57-.8-2.91-1.18-1.35-.38-2.37-.59-3.08-.64v-2.26h18.38v2.26Z"/>
    <path d="M148.47,145.17c-2.7,0-5.28-.53-7.75-1.59-2.47-1.06-4.66-2.59-6.57-4.59-1.89-2-3.4-4.44-4.52-7.32-1.13-2.88-1.69-6.13-1.69-9.74s.55-6.89,1.66-9.84c1.1-2.94,2.63-5.48,4.58-7.6,1.93-2.1,4.21-3.73,6.84-4.88,2.63-1.15,5.44-1.72,8.43-1.72,2.23,0,4.24.28,6.05.83,1.8.55,3.52,1.33,5.16,2.33l1.3-2.17h2.55l.29,16.12h-2.61c-.34-1.57-.85-3.28-1.53-5.11-.68-1.84-1.47-3.39-2.39-4.67-1.02-1.44-2.23-2.57-3.63-3.39s-3-1.23-4.8-1.23c-2.06,0-3.97.46-5.74,1.37-1.77.91-3.3,2.26-4.6,4.05-1.23,1.72-2.2,3.91-2.9,6.57-.7,2.66-1.05,5.62-1.05,8.9,0,2.89.37,5.54,1.1,7.95.73,2.41,1.78,4.53,3.14,6.36,1.36,1.81,2.96,3.22,4.82,4.24s3.93,1.53,6.22,1.53c1.72,0,3.3-.27,4.74-.81,1.44-.54,2.69-1.26,3.75-2.15,1.06-.93,1.99-2,2.8-3.19.81-1.19,1.46-2.49,1.97-3.89l2.39,1.15c-1.82,4.48-4.24,7.68-7.26,9.61-3.01,1.92-6.6,2.88-10.76,2.88Z"/>
    <path d="M190.22,144.08h-20.36v-2.26c.57-.04,1.4-.11,2.49-.19,1.08-.08,1.85-.21,2.29-.38.7-.28,1.21-.65,1.53-1.13.32-.48.48-1.14.48-1.99v-32.75c0-.74-.12-1.37-.35-1.86-.23-.5-.79-.92-1.66-1.26-.64-.26-1.44-.49-2.41-.72s-1.76-.36-2.37-.4v-2.26h20.36v2.26c-.66.02-1.45.1-2.36.24-.91.14-1.71.31-2.39.53-.81.25-1.35.67-1.62,1.24-.28.57-.41,1.21-.41,1.91v32.72c0,.7.15,1.32.46,1.86.31.54.83.97,1.58,1.29.45.17,1.17.36,2.18.56,1.01.2,1.86.31,2.56.33v2.26Z"/>
    <path d="M242.28,101.14c-.6.02-1.51.19-2.74.51s-2.11.65-2.64.99c-.77.53-1.28,1.55-1.55,3.06-.27,1.51-.4,3.42-.4,5.73v33.1h-2.77l-27.4-36.99v23.32c0,2.61.16,4.62.49,6.02.33,1.4.83,2.4,1.51,3,.49.47,1.5.9,3.03,1.31s2.54.62,3.03.64v2.26h-18.54v-2.26c.57-.04,1.54-.25,2.9-.62,1.36-.37,2.21-.71,2.55-1,.74-.59,1.25-1.5,1.53-2.72.28-1.22.41-3.31.41-6.26v-22.27c0-.98-.17-1.95-.51-2.93-.34-.98-.8-1.73-1.37-2.26-.76-.7-1.8-1.3-3.11-1.8-1.31-.5-2.36-.77-3.17-.81v-2.26h12.92l25.41,34.46v-21.5c0-2.63-.17-4.66-.51-6.07-.34-1.41-.83-2.35-1.47-2.82-.59-.4-1.57-.8-2.91-1.18-1.35-.38-2.37-.59-3.08-.64v-2.26h18.38v2.26Z"/>
    <g>
      <path d="M286.84,111.1c-.17-.41-.34-.82-.53-1.21-.2.45-.41.87-.6,1.25.21-.04.44-.06.68-.06.14,0,.29,0,.44.02Z"/>
      <path d="M288.7,118.79c-1.21,1.2-2.72,1.99-4.19,2.61,2.03.22,3.04,1.32,3.54,2.26.64,1.19.59,2.66-.13,4.03-1.18,2.25-3.8,3.81-7.02,4.17l-1.25.14-1.41.16c.4.33.73.75.91,1.21-.22.54-.46,1.06-.71,1.56-.23.46-.48.91-.74,1.34,0,0,0,0,0,0-.38.64-.82,1.21-1.28,1.76-.91,1.08-1.96,1.99-3.18,2.7-1.83,1.06-3.88,1.59-6.15,1.59-.17,0-.32-.02-.48-.03-.29,0-.57-.02-.85-.05-.28-.02-.56-.06-.84-.1h0c.48-3.04,2.73-4.84,5.78-4.87,3.41,0,7.39-.86,6.92-3.21-.1-.51-1.05-1.13-1.64-1.19l-3.14-.28c.57-.94,1.47-1.69,2.35-1.79l5.51-.63c4.62-.53,6.89-3.79,5.85-5.74-1.74-3.26-7.76.37-7.87-1.3-.17-2.7,7.34-2.51,9.82-6.83.41-.71.42-2.09,0-2.69-.42-.61-1.76-.99-2.48-.84l-2.77.58c-.22-2.33,2.93-4.53,2.02-8.44-.18-.76-.85-1.8-1.43-2.04-.51-.21-1.81-.11-2.32.16-1.76.94-2.58,2.53-3.54,4.2l-1.51,2.62-1.55-2.46c-.34-.54-1.65-1.23-2.32-1.1-.56.11-1.44.83-1.76,1.44-.93,1.77-.41,3.49,0,5.29l1.03,4.5c.12.51-.99,1.75-1.39,1.42-.51-.42-1-1.54-1.05-2.23-.18-2.36-2.04-4.87-4.53-4.83-2.76.05-3.02,5.99-.49,8.66,2.28,2.4-.46,3.83,1.39,7.07.62,1.09,1.57,3.45,1.18,4.65l-1.53,4.74c-.35-.84-.86-2.23-.8-3.02l.42-5.33c.06-.71-1.04-1.42-1.85-1.5,1.27-4.07.02-7-.98-6.37l-1.15.73c-1.15-2.1-2.57-3.82-4.23-3.3-1.57.49-1.82,3.73.06,6.21l2.16,2.86c-1.01-.29-2.35-.79-2.98-.18-.48.46.08,2.26.6,2.69l6.27,5.21c2.44,2.03,1.39,5.13.88,6.98-.28-.07-.54-.16-.8-.24-.27-.09-.54-.16-.8-.26-.49-.2-.96-.43-1.41-.7-1.74-1.05-3.19-2.51-4.33-4.38-1.19-1.91-2.06-4.1-2.61-6.56-.55-2.46-.83-5.22-.83-8.28,0-2.76.26-5.39.78-7.9.52-2.51,1.31-4.69,2.37-6.56,1.13-1.95,2.58-3.52,4.36-4.68,1.78-1.17,3.95-1.75,6.5-1.75,2.27,0,4.29.51,6.05,1.51,1.5.86,2.77,2.03,3.84,3.46.75-1.3,1.58-2.59,2.97-3.56-1.34-1.01-2.79-1.88-4.4-2.56-2.65-1.13-5.48-1.69-8.47-1.69s-5.65.55-8.3,1.66c-2.64,1.1-4.96,2.7-6.96,4.78-2.02,2.1-3.6,4.59-4.75,7.47-1.15,2.88-1.72,6.15-1.72,9.83,0,3.36.55,6.5,1.64,9.45,1.09,2.94,2.6,5.44,4.51,7.5,1.91,2.1,4.2,3.74,6.87,4.92,1.62.72,3.34,1.19,5.14,1.47h0c1.16.18,2.34.3,3.57.3,2.95,0,5.74-.55,8.35-1.66,2.61-1.1,4.91-2.68,6.88-4.72,2.04-2.06,3.63-4.56,4.78-7.49,1.15-2.93,1.72-6.19,1.72-9.78,0-.93-.04-1.85-.12-2.74ZM269.52,127.98c.59-2.17-1.04-4.01-.78-6.4l1.96,4.72,4.88-8.09-1.34-5.32.34-.16,1.51,4.58,4.35-7.36c-.79,2.79-2.01,5.2-3.31,7.77l3.71-.64-4.28,1.86-5.23,8.86c2.49-.5,4.85-1.29,7.46-1.08-2.77,1.12-5.96.84-8.22,3-1.72,1.64-1.93,4.42-3.89,6.6-.22-2.87,2.05-5.4,2.84-8.32Z"/>
    </g>
  </g>
</svg>